<svg width="666" height="334" viewBox="0 0 666 334" fill="none" xmlns="http://www.w3.org/2000/svg">
<g clip-path="url(#clip0_12_1949)">
<path d="M219.327 334C199.231 334 179.165 333.64 159.129 332.92C130.5 331.891 100.896 330.828 73.3809 315.561C54.1325 304.882 37.0851 287.748 24.0821 266.011C15.3911 251.278 9.01855 235.294 5.18815 218.622C-1.95701 188.267 -1.71364 156.639 5.89781 126.398C8.56515 116.029 12.2423 105.948 16.8764 96.297C36.9424 54.7271 73.5413 26.8224 117.289 19.7385C117.65 19.6916 118.016 19.6838 118.379 19.7152C118.575 19.7257 118.772 19.737 118.972 19.7287L119.229 19.6468C119.889 19.4174 120.567 19.2434 121.255 19.1266C188.726 9.07798 260.052 29.4098 327.518 77.9224C379.682 115.437 448.815 135.638 538.867 139.68L540.145 139.747C565.213 141.188 589.462 151.527 610.272 169.649C630.812 187.535 646.234 211.398 654.871 238.66C655.933 241.984 656.906 245.443 657.764 248.942C658.562 252.194 658.506 255.598 657.6 258.821C656.694 262.045 654.97 264.979 652.594 267.338V267.345L652.37 267.576C651.83 268.113 651.262 268.628 650.681 269.107L649.999 269.67C644.244 274.413 639.698 278.159 634.258 281.069C630.63 282.996 626.771 284.454 622.775 285.406C600.831 290.759 578.546 295.721 556.539 300.156C513.801 308.777 469.938 315.889 426.166 321.292C357.545 329.757 288.468 334.001 219.327 334ZM117.867 21.1875C117.733 21.1862 117.598 21.1954 117.465 21.2148C74.1265 28.2325 37.8741 55.8633 18.007 97.0216C13.4187 106.577 9.77793 116.558 7.13711 126.824C-0.404981 156.798 -0.645326 188.144 6.43628 218.23C10.2292 234.743 16.54 250.573 25.1471 265.166C38.0228 286.69 54.8959 303.652 73.9424 314.218C101.211 329.349 130.675 330.407 159.17 331.43C248.29 334.616 337.522 330.731 426.028 319.811C469.771 314.41 513.607 307.304 556.316 298.688C578.308 294.256 600.577 289.298 622.507 283.948C626.407 283.02 630.173 281.598 633.714 279.717C639.044 276.866 643.546 273.156 649.246 268.458L649.929 267.896C650.428 267.483 650.918 267.042 651.387 266.584L651.521 266.443C656.205 261.72 658.027 255.489 656.519 249.348V249.347C655.67 245.885 654.707 242.462 653.656 239.173C636.013 183.482 590.371 144.125 540.083 141.236L538.812 141.169C497.677 139.322 461.681 134.207 428.772 125.53C389.486 115.172 355.189 99.5792 326.833 79.1862C259.624 30.8595 188.596 10.6034 121.42 20.6043C120.793 20.7126 120.175 20.8727 119.574 21.0831L119.11 21.213C118.847 21.2248 118.583 21.2216 118.319 21.2035C118.164 21.1955 118.014 21.1875 117.867 21.1875Z" fill="#69B51F" fill-opacity="0.2"/>
<path d="M208.031 108.821C206.171 107.036 204.268 97.0779 201.893 96.067C203.668 99.9924 202.379 101.032 202.37 105.34C202.392 107.786 202.106 110.225 201.52 112.6H161.285V81.187C161.285 78.3644 161.84 75.5694 162.92 72.9617C164 70.354 165.582 67.9845 167.577 65.9887C169.572 63.9928 171.941 62.4096 174.547 61.3295C177.154 60.2494 179.948 59.6935 182.769 59.6936C183.846 59.7146 184.916 59.8713 185.954 60.16C189.412 61.0941 192.564 62.9215 195.093 65.459C197.623 67.9965 199.441 71.1548 200.365 74.6171C203.432 85.8331 208.311 104.503 208.031 108.821Z" fill="#267824"/>
<path d="M163.646 147.466L163.665 122.981L149.278 124.267L154.356 139.709L151.98 178.525C150.827 178.783 149.775 179.372 148.951 180.219C148.127 181.066 147.567 182.134 147.339 183.293C147.112 184.453 147.227 185.654 147.669 186.749C148.112 187.845 148.864 188.788 149.833 189.463C150.803 190.138 151.947 190.517 153.128 190.553C154.309 190.589 155.474 190.28 156.483 189.664C157.491 189.049 158.298 188.153 158.807 187.087C159.315 186.02 159.502 184.828 159.345 183.657L163.646 147.466Z" fill="#8D6E63"/>
<path d="M191.959 322.435L197.771 322.434L200.536 300.006H191.957L191.959 322.435Z" fill="#8D6E63"/>
<path d="M189.99 319.566L199.178 319.018V322.956L207.914 328.991C208.345 329.289 208.67 329.718 208.841 330.213C209.012 330.709 209.02 331.247 208.864 331.748C208.708 332.248 208.396 332.686 207.974 332.997C207.551 333.308 207.041 333.476 206.516 333.476H195.578L193.692 329.58L192.956 333.476H188.832L189.99 319.566Z" fill="#267824"/>
<path d="M158.351 322.435L164.163 322.434L166.928 300.006H158.35L158.351 322.435Z" fill="#8D6E63"/>
<path d="M156.383 319.566L165.571 319.018V322.956L174.306 328.991C174.738 329.289 175.063 329.718 175.233 330.213C175.404 330.709 175.413 331.247 175.257 331.748C175.1 332.248 174.788 332.686 174.366 332.997C173.944 333.308 173.433 333.476 172.909 333.476H161.97L160.085 329.58L159.348 333.476H155.224L156.383 319.566Z" fill="#267824"/>
<path d="M186.783 96.5393L174.742 96.7755L166.243 105.751L159.429 106.751C156.346 107.203 153.512 108.7 151.401 110.991C149.289 113.283 148.028 116.23 147.827 119.34L149.008 125.827H156.091L160.188 149.895C158.595 153.956 158.486 157.162 161.757 158.421L171.909 177.553L201.893 164.09C203.413 161.475 203.901 158.848 202.346 156.293L204.49 119.45H211.697C211.697 112.559 209.367 106.75 202.522 105.983C199.803 105.689 197.072 105.532 194.338 105.515L186.783 96.5393Z" fill="#69B51F"/>
<path d="M201.893 164.09C201.893 164.09 172.617 169.286 161.757 158.421C161.757 158.421 160.654 160.294 158.993 163.399C158.515 164.292 157.592 164.897 157.035 165.979C156.528 166.962 155.226 168.171 154.674 169.286C154.23 170.183 154.942 171.356 154.48 172.325C148.919 183.995 142.421 200.457 143.814 211.328C144.712 218.338 146.568 234.65 148.522 252.17C148.674 253.538 147.438 255.297 147.591 256.676C147.736 257.978 149.271 258.9 149.415 260.204C149.512 261.069 148.44 261.953 148.536 262.817C148.641 263.766 149.914 264.696 150.018 265.642C152.695 289.832 155.146 312.418 155.146 312.418H168.84L171.423 260.835L169.312 242.033L174.27 204.006L181.116 240.143L181.997 260.481L189.233 313.362H201.893V262.17L202.837 259.511L201.893 256.1L202.837 252.425L201.893 248.423V164.09Z" fill="#267824"/>
<path d="M190.478 89.5538C188.613 92.0325 185.96 93.8018 182.955 94.5703C179.951 95.3389 176.774 95.0608 173.949 93.782C171.123 92.5032 168.817 90.2998 167.411 87.5347C166.004 84.7697 165.581 81.6078 166.21 78.5699C166.84 75.532 168.485 72.7992 170.874 70.8215C173.264 68.8438 176.255 67.7391 179.356 67.6895C182.457 67.6399 185.482 68.6481 187.934 70.5483C190.385 72.4485 192.117 75.1273 192.843 78.1435C192.882 78.3072 192.916 78.4699 192.948 78.6389C193.331 80.5294 193.31 82.4799 192.884 84.3614C192.458 86.243 191.638 88.0128 190.478 89.5538Z" fill="#8D6E63"/>
<path d="M187.633 81.7632C187.343 80.3095 186.611 78.9811 185.536 77.9605C185.642 79.3537 185.449 80.7533 184.969 82.0656C181.38 82.3836 177.774 81.669 174.577 80.006C172.169 78.3716 169.104 78.5133 165.534 80.006C165.534 78.269 165.876 76.5489 166.54 74.9441C167.205 73.3393 168.178 71.8811 169.406 70.6528C170.634 69.4246 172.092 68.4503 173.696 67.7857C175.3 67.1211 177.019 66.7791 178.756 66.7793H181.116C184.623 66.7799 187.985 68.1737 190.465 70.654C192.944 73.1344 194.337 76.4983 194.338 80.006C192.159 80.7879 189.915 81.3759 187.633 81.7632Z" fill="#267824"/>
<path d="M84.3433 250.342C105.321 250.342 122.326 233.33 122.326 212.344C122.326 191.358 105.321 174.345 84.3433 174.345C63.366 174.345 46.3605 191.358 46.3605 212.344C46.3605 233.33 63.366 250.342 84.3433 250.342Z" fill="#69B51F" fill-opacity="0.2"/>
<path d="M326.39 75.9968C347.367 75.9968 364.373 58.9843 364.373 37.9984C364.373 17.0125 347.367 0 326.39 0C305.413 0 288.407 17.0125 288.407 37.9984C288.407 58.9843 305.413 75.9968 326.39 75.9968Z" fill="#69B51F" fill-opacity="0.2"/>
<path d="M628.017 256.303C648.995 256.303 666 239.29 666 218.305C666 197.319 648.995 180.306 628.017 180.306C607.04 180.306 590.035 197.319 590.035 218.305C590.035 239.29 607.04 256.303 628.017 256.303Z" fill="#69B51F" fill-opacity="0.2"/>
<path d="M394.908 42.1423V128.306C394.908 130.096 394.202 131.814 392.944 133.086C391.686 134.358 389.976 135.082 388.187 135.101C388.163 135.103 388.138 135.104 388.113 135.104H378.089C370.068 135.104 362.376 131.916 356.704 126.242C351.033 120.569 347.847 112.873 347.847 104.849V42.1423C347.847 40.3394 348.562 38.6105 349.837 37.3357C351.111 36.0609 352.839 35.3447 354.641 35.3447H358.703C356.821 40.8363 382.361 43.1484 383.763 35.3447H388.113C389.915 35.3447 391.643 36.0609 392.918 37.3357C394.192 38.6105 394.908 40.3395 394.908 42.1423Z" fill="#267824"/>
<path d="M365.16 28.9016C365.16 28.6654 365.254 28.439 365.421 28.272C365.588 28.105 365.814 28.011 366.05 28.0107H372.106C372.341 28.0114 372.567 28.1056 372.734 28.2726C372.9 28.4396 372.993 28.6658 372.993 28.9016C372.993 29.1374 372.9 29.3636 372.734 29.5306C372.567 29.6976 372.341 29.7917 372.106 29.7924H366.05C365.814 29.7921 365.588 29.6982 365.421 29.5312C365.254 29.3642 365.16 29.1378 365.16 28.9016Z" fill="#267824"/>
<path d="M390.193 146.033H351.901C348.93 146.03 346.082 144.847 343.981 142.746C341.88 140.644 340.698 137.795 340.695 134.823V74.5906C340.485 74.4395 340.313 74.2405 340.195 74.01C340.077 73.7795 340.016 73.5242 340.016 73.2653V67.2076C340.016 66.9487 340.077 66.6934 340.195 66.463C340.313 66.2325 340.485 66.0336 340.695 65.8826V64.2568C340.485 64.1058 340.313 63.9068 340.195 63.6764C340.077 63.446 340.016 63.1907 340.016 62.9318V56.8738C340.016 56.6149 340.077 56.3596 340.195 56.1292C340.313 55.8987 340.485 55.6998 340.695 55.5488V52.6104C340.435 52.4709 340.218 52.2634 340.068 52.0102C339.917 51.757 339.837 51.4674 339.838 51.1726V45.115C339.837 44.8201 339.917 44.5306 340.067 44.2773C340.218 44.024 340.435 43.8164 340.695 43.6769V35.6252C340.698 32.6531 341.88 29.8037 343.981 27.7021C346.082 25.6005 348.93 24.4184 351.901 24.415H390.193C393.164 24.4184 396.012 25.6005 398.113 27.7021C400.214 29.8037 401.396 32.6531 401.399 35.6252V53.1761C401.601 53.3024 401.767 53.4779 401.883 53.6862C401.998 53.8945 402.059 54.1287 402.059 54.3668V65.9175C402.059 66.1557 401.998 66.39 401.883 66.5983C401.767 66.8066 401.601 66.9822 401.399 67.1086V134.823C401.396 137.795 400.214 140.644 398.113 142.746C396.012 144.847 393.164 146.03 390.193 146.033ZM351.901 25.9052C349.325 25.9081 346.855 26.9331 345.034 28.7553C343.212 30.5775 342.187 33.0482 342.184 35.6252V44.9444L341.468 44.972C341.431 44.9734 341.395 44.9889 341.369 45.0155C341.343 45.0421 341.328 45.0777 341.328 45.115V51.1726C341.328 51.2098 341.343 51.2454 341.37 51.272C341.396 51.2985 341.431 51.3141 341.468 51.3156L342.184 51.3429V56.5951L341.618 56.7348C341.586 56.7423 341.559 56.7601 341.538 56.7852C341.518 56.8104 341.507 56.8415 341.506 56.8738V62.9318C341.507 62.9641 341.518 62.9952 341.538 63.0203C341.559 63.0455 341.586 63.0632 341.618 63.0708L342.184 63.2105V66.9289L341.618 67.0686C341.586 67.0761 341.559 67.0939 341.538 67.119C341.518 67.1442 341.507 67.1753 341.506 67.2076V73.2652C341.507 73.2976 341.518 73.3287 341.538 73.354C341.558 73.3792 341.586 73.3969 341.618 73.4045L342.184 73.5442V134.823C342.187 137.4 343.212 139.87 345.034 141.693C346.855 143.515 349.325 144.54 351.901 144.543H390.193C392.769 144.54 395.239 143.515 397.06 141.693C398.882 139.87 399.906 137.4 399.909 134.823V65.8328H400.569V54.452H399.909V35.6252C399.906 33.0482 398.882 30.5776 397.06 28.7553C395.239 26.9331 392.769 25.9081 390.193 25.9051L351.901 25.9052Z" fill="#267824"/>
<path d="M375.489 29.7924C375.981 29.7924 376.38 29.3936 376.38 28.9016C376.38 28.4096 375.981 28.0107 375.489 28.0107C374.998 28.0107 374.599 28.4096 374.599 28.9016C374.599 29.3936 374.998 29.7924 375.489 29.7924Z" fill="#267824"/>
<path d="M181.781 201.468H82.1417C80.7267 201.465 79.3707 200.901 78.3701 199.9C77.3695 198.899 76.8057 197.542 76.8019 196.127V147.557C76.8055 146.141 77.3692 144.785 78.3696 143.784C79.3701 142.783 80.726 142.218 82.141 142.215H181.78C183.195 142.218 184.551 142.782 185.552 143.783C186.552 144.784 187.116 146.14 187.12 147.556V196.126C187.116 197.542 186.553 198.898 185.552 199.899C184.552 200.9 183.196 201.464 181.781 201.468Z" fill="#F9F9F9"/>
<path d="M181.781 201.468H82.1417C80.7267 201.465 79.3707 200.901 78.3701 199.9C77.3695 198.899 76.8057 197.542 76.8019 196.127V147.557C76.8055 146.141 77.3692 144.785 78.3696 143.784C79.3701 142.783 80.726 142.218 82.141 142.215H181.78C183.195 142.218 184.551 142.782 185.552 143.783C186.552 144.784 187.116 146.14 187.12 147.556V196.126C187.116 197.542 186.553 198.898 185.552 199.899C184.552 200.9 183.196 201.464 181.781 201.468ZM82.1417 143.705C81.1213 143.708 80.1436 144.115 79.4222 144.837C78.7007 145.558 78.2942 146.537 78.2914 147.557V196.126C78.2943 197.147 78.701 198.125 79.4226 198.847C80.1442 199.569 81.1221 199.975 82.1424 199.978H181.779C182.8 199.975 183.778 199.568 184.499 198.846C185.221 198.125 185.628 197.146 185.63 196.125V147.557C185.627 146.536 185.221 145.558 184.499 144.836C183.778 144.114 182.8 143.708 181.779 143.705L82.1417 143.705Z" fill="#267824"/>
<path d="M137.301 194.29C117.65 194.29 97.1598 194.102 89.5145 193.981C88.5086 193.96 87.5507 193.547 86.8453 192.829C86.1399 192.111 85.7428 191.146 85.7389 190.14V149.935C85.7393 149.574 85.8824 149.229 86.1368 148.973C86.3913 148.718 86.7364 148.574 87.0966 148.573H176.822C177.182 148.573 177.528 148.717 177.783 148.971C178.038 149.226 178.182 149.571 178.183 149.931V177.209C178.166 181.662 176.405 185.931 173.279 189.1C170.152 192.269 165.908 194.086 161.458 194.161C154.333 194.254 145.895 194.29 137.301 194.29Z" fill="#267824"/>
<path d="M171.496 174.703H90.4221C89.7432 174.701 89.0814 174.49 88.5265 174.099C87.9717 173.708 87.5507 173.155 87.3209 172.516L78.1445 146.762C77.9676 146.265 77.9125 145.733 77.9838 145.211C78.055 144.688 78.2505 144.191 78.5539 143.759C78.8573 143.328 79.2596 142.976 79.7272 142.733C80.1948 142.489 80.7139 142.362 81.241 142.361L182.582 142.22C183.064 142.219 183.54 142.324 183.976 142.528C184.413 142.731 184.8 143.028 185.109 143.397C185.419 143.767 185.644 144.199 185.768 144.665C185.892 145.131 185.913 145.618 185.829 146.092L185.907 146.126L185.616 146.805L185.613 146.812L174.52 172.707C174.267 173.299 173.846 173.805 173.308 174.16C172.77 174.515 172.14 174.704 171.496 174.703ZM182.587 143.71L81.2438 143.851C80.9551 143.852 80.6707 143.921 80.4146 144.055C80.1584 144.188 79.938 144.381 79.7718 144.617C79.6056 144.853 79.4985 145.126 79.4594 145.412C79.4204 145.698 79.4505 145.989 79.5474 146.262L88.7234 172.015C88.8496 172.365 89.0803 172.668 89.3844 172.882C89.6885 173.096 90.0511 173.212 90.4231 173.213H171.496C171.849 173.213 172.193 173.11 172.488 172.916C172.782 172.721 173.012 172.445 173.151 172.12L184.244 146.224C184.362 145.95 184.409 145.651 184.383 145.353C184.356 145.056 184.256 144.77 184.092 144.521C183.928 144.271 183.704 144.067 183.442 143.925C183.179 143.784 182.885 143.71 182.587 143.71Z" fill="#267824"/>
<path d="M131.81 180.309C135.316 180.309 138.158 177.466 138.158 173.958C138.158 170.451 135.316 167.607 131.81 167.607C128.304 167.607 125.461 170.451 125.461 173.958C125.461 177.466 128.304 180.309 131.81 180.309Z" fill="#F9F9F9"/>
<path d="M371.622 125.174C375.128 125.174 377.97 122.331 377.97 118.823C377.97 115.316 375.128 112.472 371.622 112.472C368.116 112.472 365.274 115.316 365.274 118.823C365.274 122.331 368.116 125.174 371.622 125.174Z" fill="#F9F9F9"/>
<path d="M611.729 210.943L594.771 194.194C593.946 193.372 592.966 192.722 591.889 192.279C590.811 191.837 589.657 191.612 588.493 191.616H588.433C587.26 191.62 586.099 191.856 585.017 192.311C583.936 192.766 582.955 193.432 582.133 194.269C578.341 198.108 576.184 203.268 576.116 208.664C576.048 214.061 578.074 219.274 581.768 223.207C581.946 223.401 582.133 223.587 582.319 223.773C583.35 224.799 584.489 225.711 585.715 226.493C589.067 228.66 592.977 229.806 596.968 229.793H597.095C599.835 229.784 602.545 229.231 605.07 228.167C607.595 227.103 609.883 225.549 611.804 223.595C613.468 221.905 614.395 219.625 614.381 217.254C614.367 214.882 613.413 212.613 611.729 210.943ZM610.746 222.544C607.598 225.717 603.452 227.708 599.008 228.18C594.564 228.652 590.093 227.577 586.348 225.137C585.277 224.428 584.277 223.617 583.362 222.715C579.708 219.105 577.637 214.19 577.605 209.053C577.572 203.915 579.582 198.975 583.19 195.319C583.876 194.62 584.694 194.064 585.597 193.684C586.5 193.304 587.469 193.108 588.448 193.106H588.493C589.463 193.103 590.423 193.291 591.32 193.659C592.217 194.027 593.033 194.569 593.721 195.252L610.679 212.009C612.083 213.398 612.879 215.287 612.891 217.262C612.904 219.238 612.132 221.137 610.746 222.544Z" fill="#267824"/>
<path d="M556.088 155.972L539.13 139.216C537.461 137.559 535.203 136.632 532.852 136.638H532.8C531.625 136.642 530.463 136.88 529.38 137.336C528.297 137.793 527.316 138.46 526.492 139.298C523.357 142.482 521.324 146.588 520.692 151.013C520.059 155.437 520.86 159.948 522.976 163.885L522.984 163.892C523.857 165.502 524.942 166.988 526.209 168.31C526.35 168.474 526.514 168.638 526.678 168.802C530.572 172.669 535.84 174.834 541.327 174.822H541.461C544.201 174.811 546.912 174.257 549.437 173.191C551.961 172.126 554.25 170.571 556.17 168.616C556.995 167.78 557.647 166.791 558.089 165.703C558.531 164.615 558.755 163.451 558.747 162.277C558.74 161.103 558.501 159.942 558.045 158.86C557.589 157.778 556.924 156.797 556.088 155.972ZM555.105 167.573C553.323 169.387 551.199 170.83 548.855 171.819C546.512 172.807 543.997 173.322 541.454 173.332H541.327C537.508 173.331 533.775 172.2 530.597 170.081C527.419 167.963 524.938 164.951 523.467 161.426C521.995 157.901 521.598 154.019 522.326 150.268C523.053 146.518 524.873 143.067 527.557 140.348C528.945 138.944 530.834 138.148 532.808 138.135C534.783 138.123 536.681 138.895 538.088 140.281L555.046 157.03C556.449 158.422 557.243 160.313 557.254 162.289C557.265 164.266 556.493 166.166 555.105 167.573Z" fill="#267824"/>
<path d="M612.813 216.209L594.117 197.736C592.892 196.527 591.236 195.855 589.515 195.865C587.794 195.876 586.147 196.569 584.937 197.793C583.422 199.324 582.223 201.139 581.41 203.133C580.597 205.128 580.185 207.263 580.197 209.417C580.209 211.571 580.645 213.702 581.481 215.687C582.317 217.672 583.536 219.473 585.068 220.987C586.599 222.5 588.415 223.697 590.409 224.508C592.404 225.32 594.539 225.73 596.692 225.715C598.845 225.701 600.974 225.262 602.958 224.424C604.941 223.585 606.74 222.364 608.251 220.83L612.813 216.209Z" fill="#267824"/>
<path d="M557.176 161.235L538.48 142.762C537.254 141.554 535.599 140.881 533.878 140.891C532.156 140.902 530.51 141.595 529.299 142.819C527.784 144.35 526.586 146.165 525.773 148.159C524.959 150.154 524.547 152.289 524.559 154.443C524.571 156.597 525.008 158.728 525.843 160.713C526.679 162.698 527.898 164.499 529.43 166.013C530.962 167.526 532.777 168.723 534.772 169.535C536.766 170.346 538.901 170.756 541.054 170.742C543.207 170.727 545.337 170.288 547.32 169.45C549.303 168.611 551.102 167.39 552.614 165.856L557.176 161.235Z" fill="#267824"/>
<path d="M592.269 227.715L591.822 228.892C589.722 228.095 587.686 227.295 585.715 226.493C550.801 212.24 534.133 195.558 522.984 163.892L522.976 163.885C522.448 162.395 521.934 160.87 521.435 159.31L522.612 158.93C523.005 160.43 523.58 161.876 524.324 163.237C524.935 164.973 525.563 166.664 526.209 168.311C536.688 195.036 552.141 210.31 581.768 223.207C583.257 223.855 584.784 224.499 586.348 225.137C588.164 226.32 590.165 227.192 592.269 227.715Z" fill="#267824"/>
<path d="M538.82 173.466L537.773 174.527L576.454 212.747L577.501 211.686L538.82 173.466Z" fill="#267824"/>
<path d="M211.336 141.797L211.356 117.312L196.969 118.598L202.047 134.041L183.616 161.991C182.464 162.25 181.411 162.839 180.587 163.685C179.763 164.532 179.204 165.6 178.976 166.76C178.749 167.919 178.863 169.12 179.306 170.216C179.749 171.311 180.501 172.254 181.47 172.929C182.439 173.605 183.584 173.983 184.765 174.019C185.945 174.055 187.111 173.746 188.119 173.131C189.127 172.515 189.935 171.62 190.443 170.553C190.951 169.486 191.139 168.295 190.982 167.124L211.336 141.797Z" fill="#8D6E63"/>
</g>
<defs>
<clipPath id="clip0_12_1949">
<rect width="666" height="334" fill="white"/>
</clipPath>
</defs>
</svg>
